<svg xmlns="http://www.w3.org/2000/svg" width="310.67" height="139.99" viewBox="0 0 310.67 139.99"><path d="M67.66 79.2a19.19 19.19 0 0 1-9.37 2.19 19.32 19.32 0 0 1-9.38-2.18A19.16 19.16 0 0 0 39.54 77a19.14 19.14 0 0 0-9.37 2.19 19.32 19.32 0 0 1-9.38 2.18 19.28 19.28 0 0 1-9.37-2.18A19.21 19.21 0 0 0 2 77H1v8.67c0 1.32.05 2.58.12 3.83h.91a19.21 19.21 0 0 1 9.38 2.19 19.28 19.28 0 0 0 9.37 2.18 19.32 19.32 0 0 0 9.38-2.18 19.14 19.14 0 0 1 9.37-2.19 19.16 19.16 0 0 1 9.37 2.19 19.32 19.32 0 0 0 9.38 2.18 19.31 19.31 0 0 0 9.37-2.18A19.16 19.16 0 0 1 77 89.52h.91c.08-1.25.12-2.51.12-3.83v-8.64h-1a19.28 19.28 0 0 0-9.37 2.18m-9.37 27.16a19.29 19.29 0 0 1-9.38-2.18 19.16 19.16 0 0 0-9.37-2.21 19.16 19.16 0 0 0-9.37 2.19 19.32 19.32 0 0 1-9.38 2.18 19.28 19.28 0 0 1-9.37-2.18 18.45 18.45 0 0 0-8.15-2.15 46 46 0 0 0 6.94 14 12.39 12.39 0 0 1 1.21.6 19.17 19.17 0 0 0 9.37 2.18 19.32 19.32 0 0 0 9.38-2.18 19.16 19.16 0 0 1 9.37-2.19 19.16 19.16 0 0 1 9.37 2.19 19.29 19.29 0 0 0 9.38 2.18 19.31 19.31 0 0 0 9.37-2.18 11.36 11.36 0 0 1 1.21-.6 46 46 0 0 0 6.93-14 18.37 18.37 0 0 0-8.14 2.15 19.31 19.31 0 0 1-9.37 2.18m-9.38 22.84a19.28 19.28 0 0 0-9.37-2.21 19.28 19.28 0 0 0-9.37 2.19 15.66 15.66 0 0 1-4 1.55c5.37 3.59 10.34 6.23 13.37 8.76 3-2.53 8-5.17 13.37-8.76a15.66 15.66 0 0 1-4-1.55M67.66 54.2a19.19 19.19 0 0 1-9.37 2.19 19.21 19.21 0 0 1-9.38-2.19 19.28 19.28 0 0 0-9.37-2.2 19.25 19.25 0 0 0-9.37 2.18 19.21 19.21 0 0 1-9.38 2.19 19.16 19.16 0 0 1-9.37-2.19A19.32 19.32 0 0 0 2 52H1v12.5h1a19.21 19.21 0 0 1 9.38 2.19 19.28 19.28 0 0 0 9.37 2.18 19.32 19.32 0 0 0 9.38-2.18 19.14 19.14 0 0 1 9.37-2.19 19.16 19.16 0 0 1 9.37 2.19 19.32 19.32 0 0 0 9.38 2.18 19.31 19.31 0 0 0 9.37-2.18A19.16 19.16 0 0 1 77 64.52h1V52.05h-1a19.28 19.28 0 0 0-9.37 2.18M48.46 26.26a7.77 7.77 0 0 0 0-2.31c0-.25-.11-.5-.16-.76a9.75 9.75 0 0 1-.11-1.93 4.14 4.14 0 0 1 .47-1.88c-.65-.1-1.52.71-2 1.4a6.09 6.09 0 0 0-.77 1.5c-.08.2-.12.42-.19.61a5.63 5.63 0 0 1-1.06 1.76 14 14 0 0 1-1.92 1.64 15.24 15.24 0 0 1 5.11 2.14 12.5 12.5 0 0 0 .63-2.17zm-17.78-3c.09.2.21.38.31.57a5.75 5.75 0 0 1 .48 2 13.72 13.72 0 0 1-.18 2.52 15 15 0 0 1 5.11-2.12 10.82 10.82 0 0 0-1.1-2 7.54 7.54 0 0 0-1.62-1.62c-.21-.16-.44-.29-.65-.43A10.1 10.1 0 0 1 31.58 21a4.28 4.28 0 0 1-1-1.66c-.54.39-.58 1.58-.42 2.4a6.11 6.11 0 0 0 .52 1.57zm11.42 2.92L39.54.77 37 26.18a16.57 16.57 0 0 1 2.54-.18 16.69 16.69 0 0 1 2.56.18zm9.9 6.33l4.87-8.72-8.72 4.88A15 15 0 0 1 52 32.51zm-21.11-3.84l-8.72-4.88L27 32.51a15.15 15.15 0 0 1 3.89-3.84zM58 35.3c.15-.21.28-.44.43-.64a8.2 8.2 0 0 1 1.29-1.45 4.09 4.09 0 0 1 1.65-1c-.39-.53-1.58-.58-2.4-.42a6.35 6.35 0 0 0-1.6.51c-.2.1-.37.22-.57.31a5.53 5.53 0 0 1-2 .48 13.07 13.07 0 0 1-2.52-.18A15 15 0 0 1 54.42 38a12.09 12.09 0 0 0 2-1.1A7.67 7.67 0 0 0 58 35.3zm-33.46 3.38l-13.86 2.49 13.87 2.48a15.79 15.79 0 0 1-.22-2.49 16.93 16.93 0 0 1 .21-2.48zm43.85 2.49l-13.86-2.49a14.14 14.14 0 0 1 0 5zm-46.06-8.93c-.26 0-.51.11-.76.16a9.12 9.12 0 0 1-1.94.1 4.1 4.1 0 0 1-1.87-.5c-.11.66.71 1.53 1.4 2a6.43 6.43 0 0 0 1.49.78c.21.07.42.1.62.18A5.7 5.7 0 0 1 23 36.05 14 14 0 0 1 24.67 38a14.87 14.87 0 0 1 2.14-5.1 11.57 11.57 0 0 0-2.18-.62 7.7 7.7 0 0 0-2.3-.04zm17.21-3.71a12.63 12.63 0 0 0-12.63 12.63 12.48 12.48 0 0 0 .15 1.84 14.76 14.76 0 0 0 3.11-1.31 19.25 19.25 0 0 1 9.37-2.18 19.28 19.28 0 0 1 9.37 2.18A14.76 14.76 0 0 0 52 43a12.48 12.48 0 0 0 .15-1.85 12.63 12.63 0 0 0-12.61-12.62zm55.2 29.35c0-3.82-.07-4.52-4.62-5.18v-.52h11.95v.52c-4.17.56-4.27 1.6-4.27 5.18v12.44c0 6.74-.77 8.24-8.31 11.47l-.28-.59c5.11-2.4 5.53-6.15 5.53-12.4zm17.01-2.61l-3.27 9h6.88zm-3.86 10.64c-.59 1.74-2.13 5.35-2.13 7 0 2.12 2.4 2.12 4 2.36v.52h-9.52v-.52c3.09-.83 3.4-1.53 4.48-4.24l3.92-10.25 2.09-5.67c.31-.9.77-1.73.38-2.39a6.61 6.61 0 0 0 2.54-1.88l7.65 20.36c.93 2.54 1.53 3.55 4.3 4.07v.52h-10.24v-.52c1.22-.28 2.68-.66 2.68-2.22s-1.33-4.73-2.23-7.16zm34.5 4.83l6.29-13.83c.87-1.91 1.36-3.65.59-4.17l.08-.56H157v.52c-2.23.45-3.58 1.29-3.44 3.72l.76 12.65c.38 4.83.38 5.6 4.1 6.22v.52H147v-.52c2.68-.42 4.38-.73 4.2-3.79l-.93-15.18h-.07l-8.86 19.49h-.38l-8.26-18.69h-.07c-.56 5.31-.83 9.17-1.08 14.55-.07 1.36 0 2.93 4.17 3.62v.52H126v-.52c3.09-.52 3.4-2 3.89-4.83l1.29-9.76.45-4.73c.21-2.3-1.77-3.09-3.82-3.27v-.52h7.5v.38c-.77.8.17 2.89.41 3.44zm17.45 4.55c4.17-.56 4.21-1.6 4.31-5.18V57.88c-.1-3.58-.14-4.62-4.31-5.18v-.52h18.66l-.42 5.35h-.51c-.25-4.48-3.48-4.52-7-4.52h-3.37v9.91h3.61c2.61 0 4.59-.21 5-3.2h.52v7.75h-.52c-.45-3-2.36-3.09-5-3.09h-3.61v5.7c0 2-.49 4.9 5.21 4.9 4.38 0 6.53-1.67 7.4-6h.52a21.61 21.61 0 0 1-1.18 6.88h-19.31zm36.42-16.99h-.55c-.56-2.82-1.46-5.53-4.9-5.53a3.85 3.85 0 0 0-4.07 3.83c0 6 10.95 5.8 10.95 12.82 0 4.48-4.45 6.81-8.45 6.81a11.54 11.54 0 0 1-6.11-1.77l-1-5.91h.62c.87 3.34 3.2 6.64 7 6.64 2.57 0 4.59-1.53 4.59-4.24 0-6.19-10.63-5.63-10.63-12.58 0-4.07 4-6.64 7.75-6.64a10.78 10.78 0 0 1 5.07 1.35zM227 59.34h-.52c-.66-3.93-3-6.74-7.12-6.74-6.36 0-9.95 5.21-9.95 11.19 0 6.85 5.25 11.6 10.3 11.6 4.54 0 6.35-3.33 7.92-7.08l.49.21a33.61 33.61 0 0 1-1.92 6.22 16.13 16.13 0 0 1-7.09 1.49c-7.26 0-13.73-4.17-13.73-12 0-6.19 4.83-12.45 14-12.45a15 15 0 0 1 7.62 1.86zm7 3.79c0 5.38 2.85 12.26 9.1 12.26 5.73 0 8.27-5.83 8.27-10.8-.1-6.16-3.68-12-9-12-6 0-8.37 5.83-8.37 10.53m21.4.87c0 7.47-5.42 12.23-12.72 12.23S229.94 71.47 229.94 64s5.43-12.2 12.69-12.2c8.9 0 12.75 6.05 12.75 12.24m6.51-.91c0 5.38 2.85 12.26 9.1 12.26 5.74 0 8.27-5.83 8.27-10.8-.1-6.16-3.68-12-9-12-6 0-8.37 5.83-8.37 10.53m21.4.87c0 7.47-5.42 12.23-12.71 12.23S257.86 71.47 257.86 64s5.42-12.2 12.68-12.2c8.9 0 12.75 6.05 12.75 12.24M307 52.18v.52c-4 .42-6.61 3.79-9.18 6.47l-3.27 3.47 7.06 7.78a17 17 0 0 0 7.71 5.29l-.17.52c-6.05-.49-7-.66-10.29-4.24l-7.09-7.72 5.6-6.08c3.65-4.1 2.95-5.24.62-5.49v-.52zm-15.7 17.93c.1 3.58.14 4.63 4.62 5.18v.52h-12v-.52c4.17-.55 4.2-1.6 4.31-5.18V57.88c-.11-3.58-.14-4.62-4.31-5.18v-.52H295v.52c-3.54.56-3.58 1.6-3.68 5.18zM117.26 84.8v.52c-3.16.34-3.37 2.29-3.51 6.88l-.21 7.61c-.1 4.49-2 9-9.73 9-10.77 0-9.66-7.78-9.66-10.56V90.5c-.11-3.59-.14-4.62-4.31-5.18v-.52h12v.52c-4.55.66-4.62 1.35-4.62 5.18v7.12c0 .66-1.12 9.63 8.41 9.63 7.5 0 6.77-7.16 6.77-11.4V92.2c0-4.41-.34-6.43-5.21-6.88v-.52zm24.18 18.2l-.17-12.68c0-3.3-.94-4.28-4.87-5v-.52h9.48v.52c-2.39.31-2.84 1.63-3.12 3.89-.49 3.82-.31 12.2-.14 19.77l-.45.11c-5.56-6.57-11.75-12.65-17.62-19v6.4c0 8.62-.21 10.39 4.83 11.4v.52H119v-.52c4.69-.49 4.52-3.69 4.52-11.57v-5.2c0-3.47-.56-4.83-5-5.8v-.52h5.73zm13.29-.27c.11 3.58.15 4.62 4.31 5.18v.52h-11.67v-.52c4.17-.56 4.21-1.6 4.31-5.18V90.5c-.1-3.59-.14-4.62-4.31-5.18v-.52H159v.52c-4.16.56-4.2 1.59-4.31 5.18zm31.18-17.93v.52c-3.27.28-4.28 3-6.43 8.06l-6.64 15.85h-.49l-7.85-18.8c-1-2.54-1.84-4.77-4.93-5.11v-.52h11v.52c-4.9.48-3.3 3.27-2.4 5.46l5.56 13.41 4.11-9.84c3-7.12 3.54-8.27-1.74-9v-.55zm.31 23.11c4.17-.56 4.21-1.6 4.31-5.18V90.5c-.1-3.59-.14-4.62-4.31-5.18v-.52h18.66l-.41 5.35h-.53c-.24-4.49-3.47-4.52-7-4.52h-3.37v9.91h3.61c2.61 0 4.59-.21 5-3.2h.53v7.75h-.53c-.45-3.06-2.36-3.09-5-3.09h-3.61v5.7c0 2-.49 4.89 5.21 4.89 4.38 0 6.54-1.66 7.4-6h.52a21.66 21.66 0 0 1-1.18 6.88h-19.3zm29.22-11.37c3.34 0 7.23-1.56 7.23-5.42 0-4.07-3.58-5.7-7.23-5.66zM212.38 92c0-5.31-.17-6.11-4.06-6.46V85l8.48-.28c8.75-.28 9.45 4 9.45 5.66 0 2.92-1.81 4.59-4.31 5.7l.17.25c2.68 4.69 6 10.66 11.75 11.85l-.1.52c-3.69-.18-6.4-.07-8.41-2.16a30.08 30.08 0 0 1-4.83-7c-1.4-2.88-2.64-2-5.08-2.47v5.6c0 3.82.07 4.52 4.83 5.18v.52h-12.2v-.52c4.17-.56 4.21-1.6 4.31-5.18zM247 90.91h-.55c-.56-2.81-1.46-5.52-4.9-5.52a3.84 3.84 0 0 0-4.07 3.82c0 6 10.95 5.8 10.95 12.83 0 4.48-4.45 6.8-8.45 6.8a11.51 11.51 0 0 1-6.12-1.77l-1-5.9h.62c.87 3.33 3.2 6.63 7 6.63 2.57 0 4.58-1.52 4.58-4.23 0-6.19-10.63-5.64-10.63-12.59 0-4.07 4-6.63 7.74-6.63a10.79 10.79 0 0 1 5.08 1.35zm10.17 11.82c.11 3.58.15 4.62 4.31 5.18v.52H249.8v-.52c4.18-.56 4.21-1.6 4.32-5.18V90.5c-.11-3.59-.14-4.62-4.32-5.18v-.52h11.68v.52c-4.16.56-4.2 1.59-4.31 5.18zm27.26-19.01h.28l.49 6.5-.49.1c-1.22-4.31-3.12-4.48-7.12-4.48h-2.09v16.06c0 4.3.21 5.45 4.87 6v.52h-12.79v-.52c4.65-.56 4.86-1.71 4.86-6V85.84h-2.08c-4 0-5.91.17-7.13 4.48l-.48-.1.48-6.5h.28l.35.31a2.22 2.22 0 0 0 2.15.77h15.92a2.23 2.23 0 0 0 2.16-.77zm23.71 1.08v.52c-3 .24-4.51 1.91-6 4.41l-4.1 8.13v3.94c.07 4 .14 5.41 4.59 6.11v.52h-12.21v-.52c4.45-.7 4.52-2.12 4.58-6.11V99l-3.61-7.89c-1.32-2.92-2.26-5.38-5.77-5.8v-.51h9.59v.52c-2.85.38-2.46 1.53-1.35 4l3.47 7.51 3-5.74c2.15-4 1.87-5.35-1.15-5.73v-.56zM94 115.29h211.94v.71H94zm7.24 6.78H104l7.4 17h-3.12l-1.72-4.07h-8l-1.69 4h-3zm4.24 10.27l-2.91-6.73-2.89 6.73zm6.94-.46v-9.69h3v9.57c0 3.13 1.61 4.79 4.26 4.79s4.23-1.56 4.23-4.67v-9.69h3v9.55c0 5-2.84 7.55-7.24 7.55s-7.25-2.52-7.25-7.41zm16.16 4.69l1.78-2.11a7.83 7.83 0 0 0 5.32 2.19c1.82 0 3-.87 3-2.12v-.05c0-1.2-.67-1.85-3.8-2.57-3.58-.87-5.61-1.93-5.61-5 0-2.88 2.41-4.88 5.75-4.88a9.33 9.33 0 0 1 6.11 2.12l-1.59 2.23a7.63 7.63 0 0 0-4.56-1.73c-1.74 0-2.75.89-2.75 2v.05c0 1.29.77 1.87 4 2.64 3.56.87 5.39 2.14 5.39 4.93v.05c0 3.15-2.48 5-6 5a10.35 10.35 0 0 1-7.04-2.75zm19.94-11.64h-5.34v-2.74h13.66v2.74h-5.34V139h-3zm10.96-2.74H167a6.81 6.81 0 0 1 4.86 1.68 5.11 5.11 0 0 1 1.4 3.63 5 5 0 0 1-4 5.1l4.55 6.38h-3.51l-4.14-5.87h-3.7V139h-3zm7.29 8.35c2.11 0 3.46-1.11 3.46-2.82 0-1.8-1.3-2.79-3.49-2.79h-4.3v5.66zm17.55-8.47h2.74l7.41 17h-3.13l-1.71-4.07h-8l-1.69 4h-3zm4.23 10.27l-2.91-6.73-2.88 6.73zm8.97-10.15h3v14.14h8.85V139h-11.85zm14.57 0h3V139h-3zm13.27-.12h2.74l7.41 17h-3.12l-1.71-4.07h-8l-1.68 4h-3zm4.24 10.27l-2.91-6.73-2.89 6.73z" fill="#fff"/></svg>
