<?xml version="1.0" encoding="UTF-8" standalone="no"?>
<svg
   xmlns:dc="http://purl.org/dc/elements/1.1/"
   xmlns:cc="http://creativecommons.org/ns#"
   xmlns:rdf="http://www.w3.org/1999/02/22-rdf-syntax-ns#"
   xmlns:svg="http://www.w3.org/2000/svg"
   xmlns="http://www.w3.org/2000/svg"
   xmlns:xlink="http://www.w3.org/1999/xlink"
   xmlns:sodipodi="http://sodipodi.sourceforge.net/DTD/sodipodi-0.dtd"
   xmlns:inkscape="http://www.inkscape.org/namespaces/inkscape"
   version="1.1"
   id="svg8275"
   viewBox="0 0 49.999999 79.999999"
   height="80"
   width="50"
   inkscape:version="0.91 r13725"
   sodipodi:docname="marker.svg">
  <sodipodi:namedview
     pagecolor="#ffffff"
     bordercolor="#666666"
     borderopacity="1"
     objecttolerance="10"
     gridtolerance="10"
     guidetolerance="10"
     inkscape:pageopacity="0"
     inkscape:pageshadow="2"
     inkscape:window-width="640"
     inkscape:window-height="480"
     id="namedview13"
     showgrid="false"
     inkscape:zoom="8.8000377"
     inkscape:cx="-21.901329"
     inkscape:cy="42.694522"
     inkscape:current-layer="layer1" />
  <defs
     id="defs8277">
    <linearGradient
       y2="503.72101"
       x2="351.74799"
       y1="522.77399"
       x1="351.74799"
       gradientTransform="translate(-356.62314,-385.38706)"
       gradientUnits="userSpaceOnUse"
       id="d"
       xlink:href="#linearGradient8254" />
    <linearGradient
       id="linearGradient8254">
      <stop
         style="stop-color:#126f39;stop-opacity:1"
         offset="0"
         stop-color="#126fc6"
         id="stop8256" />
      <stop
         style="stop-color:#4cc11c;stop-opacity:1"
         offset="1"
         stop-color="#4c9cd1"
         id="stop8258" />
    </linearGradient>
  </defs>
  <metadata
     id="metadata8280">
    <rdf:RDF>
      <cc:Work
         rdf:about="">
        <dc:format>image/svg+xml</dc:format>
        <dc:type
           rdf:resource="http://purl.org/dc/dcmitype/StillImage" />
        <dc:title />
      </cc:Work>
    </rdf:RDF>
  </metadata>
  <g
     transform="matrix(1.9638502,0,0,1.9638502,30.611001,-231.16154)"
     id="layer1">
    <rect
       id="rect8222"
       width="12.625"
       height="14.5"
       x="-9.0781507"
       y="122.47595"
       style="fill:#dcffcb;fill-opacity:1" />
    <path
       style="fill:#008000;stroke:url(#d);stroke-width:1.10000002;stroke-linecap:round"
       id="path8224"
       d="m -2.8131429,118.51294 c -6.573,0 -12.0440001,5.691 -12.0440001,11.866 0,2.778 1.564,6.308 2.694,8.746 l 9.3060001,17.872 9.262,-17.872 c 1.13,-2.438 2.738,-5.791 2.738,-8.746 0,-6.175 -5.383,-11.866 -11.956,-11.866 z m 0,7.155 c 2.58400004,0.017 4.679,2.122 4.679,4.71 0,2.588 -2.09499996,4.663 -4.679,4.679 -2.584,-0.017 -4.679,-2.09 -4.679,-4.679 0,-2.588 2.095,-4.693 4.679,-4.71 z"
       inkscape:connector-curvature="0" />
    <path
       style="fill:#78d249;fill-opacity:1;stroke:#6db154;stroke-width:1.10000002;stroke-linecap:round;stroke-opacity:0.122"
       id="path8248"
       d="m -2.8261429,119.61994 c -5.944,0 -10.9380001,5.219 -10.9380001,10.75 0,2.359 1.443,5.832 2.563,8.25 l 0.031,0.031 8.3130001,15.969 8.25,-15.969 0.031,-0.031 c 1.135,-2.448 2.625,-5.706 2.625,-8.25 0,-5.538 -4.931,-10.75 -10.875,-10.75 z m 0,4.969 c 3.16800004,0.021 5.781,2.601 5.781,5.781 0,3.18 -2.61299996,5.761 -5.781,5.781 -3.168,-0.02 -5.75,-2.61 -5.75,-5.781 0,-3.172 2.582,-5.761 5.75,-5.781 z"
       inkscape:connector-curvature="0" />
  </g>
</svg>
