<svg xmlns="http://www.w3.org/2000/svg" id="svg8124" viewBox="0 0 110 210" height="210" width="110" preserveAspectRatio="xMidYMid"><defs id="defs8126"><style id="style8128">.cls-1{fill:#fff}.cls-1,.cls-2,.cls-3{fill-rule:evenodd}.cls-2{fill:#666}.cls-3{fill:#ccc}.cls-4{fill:#31a426;fill-opacity:0}</style></defs><path id="path8136" d="M0 0h110v210H0z" class="cls-4"/><g transform="matrix(.05418 0 0 .05418 42.355 162.093)" id="g8273" fill="#fff"><g id="g8233"><path d="M454.89 197.119h-36.277c-4.299-16.646-10.842-32.338-19.401-46.792l25.679-25.646c11.845-11.85 11.812-31.069 0-42.886l-21.445-21.438c-11.878-11.878-31.031-11.878-42.909 0l-25.65 25.646c-14.449-8.529-30.145-15.105-46.787-19.369V30.327C288.098 13.562 274.53 0 257.771 0h-30.327c-16.748 0-30.327 13.567-30.327 30.327v36.307a179.709 179.709 0 0 0-46.79 19.369l-25.662-25.646c-11.845-11.845-31.036-11.875-42.881 0L60.342 81.8c-11.845 11.845-11.845 31.036 0 42.881l25.647 25.646c-8.529 14.454-15.072 30.149-19.371 46.794h-36.29c-16.748 0-30.327 13.563-30.327 30.325v30.327c0 16.76 13.579 30.322 30.327 30.322h36.291a180.829 180.829 0 0 0 19.371 46.797l-25.647 25.646c-11.845 11.845-11.862 31.036 0 42.909l21.442 21.445c11.845 11.845 31.036 11.845 42.881 0l25.662-25.684c14.452 8.56 30.149 15.112 46.79 19.406v36.272c0 16.764 13.579 30.326 30.327 30.326h30.327c16.76 0 30.327-13.562 30.327-30.326v-36.282a180.488 180.488 0 0 0 46.787-19.363l25.65 25.65c11.878 11.845 31.063 11.845 42.909 0l21.445-21.445c11.845-11.873 11.845-31.036 0-42.909l-25.65-25.646a180.999 180.999 0 0 0 19.373-46.797h36.277c16.759 0 30.322-13.596 30.322-30.322v-30.327c0-16.761-13.564-30.326-30.322-30.326zM242.607 363.906c-66.989 0-121.302-54.311-121.302-121.3s54.313-121.302 121.302-121.302c66.991 0 121.302 54.313 121.302 121.302s-54.31 121.3-121.302 121.3z" id="path8235"/></g></g><g id="g8292" transform="matrix(.05418 0 0 .05418 42.355 161.855)" fill="#fff"><g id="g8294"><path id="path8296" d="M454.89 197.119h-36.277c-4.299-16.646-10.842-32.338-19.401-46.792l25.679-25.646c11.845-11.85 11.812-31.069 0-42.886l-21.445-21.438c-11.878-11.878-31.031-11.878-42.909 0l-25.65 25.646c-14.449-8.529-30.145-15.105-46.787-19.369V30.327C288.098 13.562 274.53 0 257.771 0h-30.327c-16.748 0-30.327 13.567-30.327 30.327v36.307a179.709 179.709 0 0 0-46.79 19.369l-25.662-25.646c-11.845-11.845-31.036-11.875-42.881 0L60.342 81.8c-11.845 11.845-11.845 31.036 0 42.881l25.647 25.646c-8.529 14.454-15.072 30.149-19.371 46.794h-36.29c-16.748 0-30.327 13.563-30.327 30.325v30.327c0 16.76 13.579 30.322 30.327 30.322h36.291a180.829 180.829 0 0 0 19.371 46.797l-25.647 25.646c-11.845 11.845-11.862 31.036 0 42.909l21.442 21.445c11.845 11.845 31.036 11.845 42.881 0l25.662-25.684c14.452 8.56 30.149 15.112 46.79 19.406v36.272c0 16.764 13.579 30.326 30.327 30.326h30.327c16.76 0 30.327-13.562 30.327-30.326v-36.282a180.488 180.488 0 0 0 46.787-19.363l25.65 25.65c11.878 11.845 31.063 11.845 42.909 0l21.445-21.445c11.845-11.873 11.845-31.036 0-42.909l-25.65-25.646a180.999 180.999 0 0 0 19.373-46.797h36.277c16.759 0 30.322-13.596 30.322-30.322v-30.327c0-16.761-13.564-30.326-30.322-30.326zM242.607 363.906c-66.989 0-121.302-54.311-121.302-121.3s54.313-121.302 121.302-121.302c66.991 0 121.302 54.313 121.302 121.302s-54.31 121.3-121.302 121.3z"/></g></g><g transform="matrix(.05418 0 0 .05418 42.355 91.855)" id="g8328" fill="#666"><g id="g8330"><path d="M454.89 197.119h-36.277c-4.299-16.646-10.842-32.338-19.401-46.792l25.679-25.646c11.845-11.85 11.812-31.069 0-42.886l-21.445-21.438c-11.878-11.878-31.031-11.878-42.909 0l-25.65 25.646c-14.449-8.529-30.145-15.105-46.787-19.369V30.327C288.098 13.562 274.53 0 257.771 0h-30.327c-16.748 0-30.327 13.567-30.327 30.327v36.307a179.709 179.709 0 0 0-46.79 19.369l-25.662-25.646c-11.845-11.845-31.036-11.875-42.881 0L60.342 81.8c-11.845 11.845-11.845 31.036 0 42.881l25.647 25.646c-8.529 14.454-15.072 30.149-19.371 46.794h-36.29c-16.748 0-30.327 13.563-30.327 30.325v30.327c0 16.76 13.579 30.322 30.327 30.322h36.291a180.829 180.829 0 0 0 19.371 46.797l-25.647 25.646c-11.845 11.845-11.862 31.036 0 42.909l21.442 21.445c11.845 11.845 31.036 11.845 42.881 0l25.662-25.684c14.452 8.56 30.149 15.112 46.79 19.406v36.272c0 16.764 13.579 30.326 30.327 30.326h30.327c16.76 0 30.327-13.562 30.327-30.326v-36.282a180.488 180.488 0 0 0 46.787-19.363l25.65 25.65c11.878 11.845 31.063 11.845 42.909 0l21.445-21.445c11.845-11.873 11.845-31.036 0-42.909l-25.65-25.646a180.999 180.999 0 0 0 19.373-46.797h36.277c16.759 0 30.322-13.596 30.322-30.322v-30.327c0-16.761-13.564-30.326-30.322-30.326zM242.607 363.906c-66.989 0-121.302-54.311-121.302-121.3s54.313-121.302 121.302-121.302c66.991 0 121.302 54.313 121.302 121.302s-54.31 121.3-121.302 121.3z" id="path8332"/></g></g><g id="g8364" transform="matrix(.05418 0 0 .05418 42.355 21.855)" fill="#ccc"><g id="g8366"><path id="path8368" d="M454.89 197.119h-36.277c-4.299-16.646-10.842-32.338-19.401-46.792l25.679-25.646c11.845-11.85 11.812-31.069 0-42.886l-21.445-21.438c-11.878-11.878-31.031-11.878-42.909 0l-25.65 25.646c-14.449-8.529-30.145-15.105-46.787-19.369V30.327C288.098 13.562 274.53 0 257.771 0h-30.327c-16.748 0-30.327 13.567-30.327 30.327v36.307a179.709 179.709 0 0 0-46.79 19.369l-25.662-25.646c-11.845-11.845-31.036-11.875-42.881 0L60.342 81.8c-11.845 11.845-11.845 31.036 0 42.881l25.647 25.646c-8.529 14.454-15.072 30.149-19.371 46.794h-36.29c-16.748 0-30.327 13.563-30.327 30.325v30.327c0 16.76 13.579 30.322 30.327 30.322h36.291a180.829 180.829 0 0 0 19.371 46.797l-25.647 25.646c-11.845 11.845-11.862 31.036 0 42.909l21.442 21.445c11.845 11.845 31.036 11.845 42.881 0l25.662-25.684c14.452 8.56 30.149 15.112 46.79 19.406v36.272c0 16.764 13.579 30.326 30.327 30.326h30.327c16.76 0 30.327-13.562 30.327-30.326v-36.282a180.488 180.488 0 0 0 46.787-19.363l25.65 25.65c11.878 11.845 31.063 11.845 42.909 0l21.445-21.445c11.845-11.873 11.845-31.036 0-42.909l-25.65-25.646a180.999 180.999 0 0 0 19.373-46.797h36.277c16.759 0 30.322-13.596 30.322-30.322v-30.327c0-16.761-13.564-30.326-30.322-30.326zM242.607 363.906c-66.989 0-121.302-54.311-121.302-121.3s54.313-121.302 121.302-121.302c66.991 0 121.302 54.313 121.302 121.302s-54.31 121.3-121.302 121.3z"/></g></g></svg>